# xmcd
#
# Track frame offsets:
# 150
# 11140
# 27432
# 41117
# 54200
# 68055
# 81252
# 96272
# 108312
# 122900
# 136225
# 150215
#
# Disc length: 2148 seconds
#
#
# Revision: 2
# Processed by: cddbd v1.5.1PL0 Copyright (c) Steve Scherf et al.
# Submitted via: FreeRIP 2.70 
#
DISCID=9608620c
DTITLE=Rich, Charlie - The Best Of Charlie Rich - Disc 2
DYEAR=2002
DGENRE=Country
TTITLE0=I Love My Friend
TTITLE1=My Elusive Dreams
TTITLE2=Every Time You Touch Me I Get High
TTITLE3=All Over Me
TTITLE4=Since I Fell For You
TTITLE5=Beautiful Woman
TTITLE6=Benji's Theme
TTITLE7=Rollin' With The Flow
TTITLE8=On My Knees
TTITLE9=Spanish Eyes
TTITLE10=Even A Fool Would Let Go
TTITLE11=America The Beautiful
EXTD=Entered By Itaot...
EXTT0=
EXTT1=
EXTT2=
EXTT3=
EXTT4=
EXTT5=
EXTT6=
EXTT7=
EXTT8=
EXTT9=
EXTT10=
EXTT11=
PLAYORDER=
